<svg width="89" height="59" viewBox="0 0 89 59" fill="none" xmlns="http://www.w3.org/2000/svg">
<path fill-rule="evenodd" clip-rule="evenodd" d="M7 59H0V2.86197e-07H5L38 42.9538V2.86197e-07L74 0C82 0 89 7 89 17C89 25 84.5 27.5 82 29.5C84 31 89 33 89 42.5C89 52.5 79.5 59 74 59H50V13H57V26H74C77 26 82 22.5 82 17C82 9.98217 78 7 74 7H45V59H41.5L38 54.3921L7 14.3301V59ZM57 33H74C77.5 33 82 37 82 42.5C82 47.5 77 52 74 52H57V33Z" fill="white"/>
<path fill-rule="evenodd" clip-rule="evenodd" d="M7 59H0V2.86197e-07H5L38 42.9538V2.86197e-07L74 0C82 0 89 7 89 17C89 25 84.5 27.5 82 29.5C84 31 89 33 89 42.5C89 52.5 79.5 59 74 59H50V13H57V26H74C77 26 82 22.5 82 17C82 9.98217 78 7 74 7H45V59H41.5L38 54.3921L7 14.3301V59ZM57 33H74C77.5 33 82 37 82 42.5C82 47.5 77 52 74 52H57V33Z" fill="#555555" fill-opacity="0.2"/>
</svg>
